<svg class="rose" width="34" height="34" viewBox="-17 -17 34 34" aria-hidden="true"><circle r="10.4" style="fill:none;stroke:var(--ink);stroke-opacity:.55;stroke-width:.7"/><circle r="11.8" style="fill:none;stroke:var(--ink);stroke-opacity:.3;stroke-width:.5;stroke-dasharray:.6 1.6"/><path d="M0,0L5.80,-5.80L-1.63,-1.63Z" style="fill:var(--ink);fill-opacity:0.6"/><path d="M0,0L5.80,-5.80L1.63,1.63Z" style="fill:var(--surface);stroke:var(--ink);stroke-width:.6;stroke-linejoin:round"/><path d="M0,0L5.80,5.80L1.63,-1.63Z" style="fill:var(--ink);fill-opacity:0.6"/><path d="M0,0L5.80,5.80L-1.63,1.63Z" style="fill:var(--surface);stroke:var(--ink);stroke-width:.6;stroke-linejoin:round"/><path d="M0,0L-5.80,5.80L1.63,1.63Z" style="fill:var(--ink);fill-opacity:0.6"/><path d="M0,0L-5.80,5.80L-1.63,-1.63Z" style="fill:var(--surface);stroke:var(--ink);stroke-width:.6;stroke-linejoin:round"/><path d="M0,0L-5.80,-5.80L-1.63,1.63Z" style="fill:var(--ink);fill-opacity:0.6"/><path d="M0,0L-5.80,-5.80L1.63,-1.63Z" style="fill:var(--surface);stroke:var(--ink);stroke-width:.6;stroke-linejoin:round"/><path d="M0,0L0.00,-13.50L-3.10,-0.00Z" style="fill:var(--haram)"/><path d="M0,0L0.00,-13.50L3.10,-0.00Z" style="fill:var(--haram);fill-opacity:.55"/><path d="M0,0L13.50,-0.00L0.00,-3.10Z" style="fill:var(--ink);fill-opacity:0.85"/><path d="M0,0L13.50,-0.00L0.00,3.10Z" style="fill:var(--surface);stroke:var(--ink);stroke-width:.6;stroke-linejoin:round"/><path d="M0,0L0.00,13.50L3.10,-0.00Z" style="fill:var(--ink);fill-opacity:0.85"/><path d="M0,0L0.00,13.50L-3.10,0.00Z" style="fill:var(--surface);stroke:var(--ink);stroke-width:.6;stroke-linejoin:round"/><path d="M0,0L-13.50,0.00L0.00,3.10Z" style="fill:var(--ink);fill-opacity:0.85"/><path d="M0,0L-13.50,0.00L-0.00,-3.10Z" style="fill:var(--surface);stroke:var(--ink);stroke-width:.6;stroke-linejoin:round"/><circle r="1.3" style="fill:var(--surface);stroke:var(--ink);stroke-width:.6"/></svg>